# xmcd
# Copyright (C) 1995-1998 Ti Kan
#
# Track frame offsets:
#       150
#       20782
#       35280
#       54262
#       70525
#       85022
#       101012
#       123595
#       138792
#       155857
#       173397
#       188957
#       206032
#       220852
#       237697
#       265920
#
# Disc length: 3914 seconds
#
# Revision: 0
# Processed by: cddbd v1.5.1PL0 Copyright (c) Steve Scherf et al.
# Submitted via: CD-Transfer v1.0
#
DISCID=e00f4810
DTITLE=Various Artist - 
DYEAR=93
DGENRE=
TTITLE0=Gladys Knoght and the Pips    The way we were
TTITLE1=Donnie Elbert    Where did our love go?
TTITLE2=The Moments    Jack in the Box
TTITLE3=Jimmy James and the Vagabonds    Now is the time
TTITLE4=The Moments nd the Whatnauts   Girls
TTITLE5=Melba Moore    This is it
TTITLE6=Osibisa    Sunshine day
TTITLE7=The Real Thing    You to me are everything
TTITLE8=Whispers    It's a love thing
TTITLE9=Candi Staton    Suspicious Minds
TTITLE10=The Whispers    And the beat goes on
TTITLE11=Shalamar    Stay close to love
TTITLE12=Retta Young    Sending out an S.O.S.
TTITLE13=The Trammps     Hold back the night
TTITLE14=Andrea True Connection      More, More, More
TTITLE15=Shalamar    Take that to the bank
EXTD=
EXTT0=
EXTT1=
EXTT2=
EXTT3=
EXTT4=
EXTT5=
EXTT6=
EXTT7=
EXTT8=
EXTT9=
EXTT10=
EXTT11=
EXTT12=
EXTT13=
EXTT14=
EXTT15=
PLAYORDER=
